<?xml version="1.0" encoding="UTF-8"?>
<svg id="Layer_2" data-name="Layer 2" xmlns="http://www.w3.org/2000/svg" viewBox="0 0 623.93 699.92">
  <defs>
    <style>
      .cls-1 {
        fill: #262626;
      }

      .cls-2 {
        fill: #e0e0e0;
      }

      .cls-3 {
        fill: #ffd29e;
      }
    </style>
  </defs>
  <g id="Layer_1-2" data-name="Layer 1">
    <path class="cls-3" d="M48.79,443.15h39.2v21.6h-39.2v-21.6ZM48.79,485.54h39.2v23.2h-39.2v-23.2ZM48.79,530.34h39.2v22.4h-39.2v-22.4ZM535.94,447.95h39.2v23.2h-39.2v-23.2ZM535.94,491.94h39.2v21.6h-39.2v-21.6ZM535.94,535.94h39.2v21.6h-39.2v-21.6ZM347.37,65.59h-65.69c-12.07,0-24.9-8.3-24.9-20.38V10.4h22.4v32h65.59V10.4h22.4v34.81c0,12.08-7.72,20.38-19.79,20.38h0Z"/>
    <path class="cls-1" d="M596.73,371.96h-21.6v-63.97c0-6.04-2.75-13.62-8.79-13.62h-30.41v-20.8h30.41c18.11,0,30.39,16.3,30.39,34.42v63.97Z"/>
    <path class="cls-1" d="M588.24,635.13h-52.3v-23.2h52.3c8.9,0,14.09-7.4,14.09-19.27v-186.13c0-11.87-5.19-24.17-14.09-24.17h-52.3v-22.4h52.3c21.13,0,35.69,22.42,35.69,46.57v186.13c0,24.15-14.56,42.47-35.69,42.47Z"/>
    <path class="cls-1" d="M473.28,96.79h-63.73v-62.52c0-18.11-11.23-34.26-29.34-34.26h-131.39c-18.11,0-35.25,16.15-35.25,34.26v62.53h-57.82c-42.26,0-79.77,37.55-79.77,79.81v96.97h-13.3c-18.11,0-35.5,16.3-35.5,34.42v56.59c-10.4,5.4-27.2,22.15-27.2,41.95v186.13c0,24.15,20.89,42.47,43.53,42.47h36.46c5.34,37.6,37.23,64.79,75.77,64.79h317.52c42.26,0,74.66-32.15,74.66-74.42V176.6c0-42.26-32.4-79.81-74.66-79.81h0ZM235.17,34.26c0-6.04,7.61-12.67,13.65-12.67h131.39c6.04,0,8.54,6.63,8.54,12.67v62.53h-153.58v-62.53h0ZM62.69,294.37h13.3v65.59h-27.2v-51.97c0-6.04,7.86-13.62,13.9-13.62h0ZM20.8,592.66v-186.13c0-11.87,11.1-24.17,20-24.17h35.2v229.57h-32.46c-10.56,0-22.74-7.2-22.74-19.27h0ZM524.74,624.38c0,30.24-24.51,54.75-54.75,54.75H153.13c-30.24,0-54.75-24.51-54.75-54.75V174.73c0-30.24,24.51-54.75,54.75-54.75h316.86c30.24,0,54.75,24.51,54.75,54.75v449.65h0Z"/>
    <path class="cls-1" d="M470.35,403.75c0-24.19-19.61-43.8-43.8-43.8h-229.97c-24.19,0-43.8,19.61-43.8,43.8v185.98c0,24.19,19.61,43.8,43.8,43.8h229.97c24.19,0,43.8-19.61,43.8-43.8v-185.98h0ZM429.48,611.93h-229.93c-12.07,0-25.18-7.2-25.18-19.27v-38.77c12,3.75,17.19,3.65,25.18,3.65h229.93c7.98,0,13.67.09,20.07-3.65v38.77c0,12.08-7.99,19.27-20.07,19.27ZM447.95,514.04c0,12.09-9.8,21.9-21.9,21.9h-229.77c-12.09,0-21.9-9.8-21.9-21.9v-109.79c0-12.09,9.8-21.9,21.9-21.9h229.77c12.09,0,21.9,9.8,21.9,21.9v109.79h0ZM429.48,163.98h-229.93c-24.15,0-46.77,21.32-46.77,45.47v68.43c0,22.64,22.62,39.69,46.77,39.69h229.93c24.15,0,40.86-17.05,40.86-39.69v-68.43c0-24.15-16.71-45.47-40.86-45.47h0ZM449.55,277.88c0,10.56-7.99,16.49-20.07,16.49h-229.93c-12.07,0-25.18-5.93-25.18-16.49v-68.43c0-12.08,13.1-23.87,25.18-23.87h229.93c12.07,0,20.07,11.79,20.07,23.87v68.43Z"/>
    <path class="cls-2" d="M270.72,461.27c0,24.19,19.61,43.8,43.8,43.8s43.8-19.61,43.8-43.8h0c0-24.19-19.61-43.8-43.8-43.8s-43.8,19.61-43.8,43.8h0Z"/>
    <path class="cls-2" d="M427.15,251.67c0,12.09-9.8,21.9-21.9,21.9h-185.78c-12.09,0-21.9-9.8-21.9-21.9v-21.8c0-12.09,9.8-21.9,21.9-21.9h185.78c12.09,0,21.9,9.8,21.9,21.9v21.8h0Z"/>
  </g>
</svg>